<svg width="64" height="64" viewBox="0 0 64 64" fill="none" xmlns="http://www.w3.org/2000/svg">
<rect width="64" height="64" rx="32" fill="#FFCE00"/>
<path d="M39.9013 25.2924C39.9013 24.9775 39.7762 24.6755 39.5535 24.4528C39.3309 24.2301 39.0289 24.105 38.714 24.105C38.3991 24.105 38.0971 24.2301 37.8744 24.4528C37.6517 24.6755 37.5266 24.9775 37.5266 25.2924C37.5266 25.6073 37.6517 25.9093 37.8744 26.1319C38.0971 26.3546 38.3991 26.4797 38.714 26.4797C39.0289 26.4797 39.3309 26.3546 39.5535 26.1319C39.7762 25.9093 39.9013 25.6073 39.9013 25.2924ZM18.5799 29.2475V22.1314C18.5799 20.7705 19.1205 19.4653 20.0828 18.503C21.0452 17.5406 22.3504 17 23.7113 17H41.8686C43.2295 17 44.5347 17.5406 45.497 18.503C46.4594 19.4653 47 20.7705 47 22.1314V40.2887C47 41.2787 46.719 42.2039 46.2342 42.9886L35.2783 32.2332L35.0762 32.0485C34.5927 31.6417 34.0096 31.3713 33.3868 31.265C32.764 31.1587 32.1241 31.2204 31.5331 31.4437C30.759 30.1672 29.6688 29.1118 28.3678 28.3794C27.0668 27.6471 25.599 27.2625 24.106 27.2628C22.0061 27.2628 20.0798 28.0081 18.5799 29.2475ZM35.1583 25.2924C35.1583 26.2354 35.5329 27.1398 36.1997 27.8066C36.8665 28.4734 37.7709 28.848 38.714 28.848C39.657 28.848 40.5614 28.4734 41.2282 27.8066C41.895 27.1398 42.2696 26.2354 42.2696 25.2924C42.2696 24.3493 41.895 23.4449 41.2282 22.7781C40.5614 22.1113 39.657 21.7367 38.714 21.7367C37.7709 21.7367 36.8665 22.1113 36.1997 22.7781C35.5329 23.4449 35.1583 24.3493 35.1583 25.2924ZM35.9193 45.4201C35.8349 44.8296 35.5606 44.2826 35.1378 43.8617L31.6058 40.3282C32.1897 39.3252 32.5675 38.2157 32.7169 37.0647C32.8663 35.9138 32.7843 34.7446 32.4757 33.6258C32.6443 33.5794 32.8211 33.5709 32.9934 33.6009C33.1656 33.6309 33.3291 33.6987 33.472 33.7994L33.6189 33.9226L44.5574 44.6591C43.7492 45.1574 42.8181 45.4209 41.8686 45.4201H35.9193ZM29.5532 40.5098C30.6965 39.1439 31.2851 37.3985 31.2024 35.6192C31.1197 33.8399 30.3717 32.1566 29.1066 30.9027C27.8415 29.6489 26.1515 28.9159 24.3716 28.8491C22.5916 28.7823 20.8515 29.3865 19.496 30.542C18.1404 31.6975 17.2683 33.3199 17.0524 35.088C16.8365 36.8561 17.2926 38.6407 18.3303 40.0885C19.368 41.5362 20.9116 42.5413 22.6554 42.9047C24.3991 43.2681 26.2157 42.9634 27.7454 42.0508L32.3479 46.6517C32.4563 46.768 32.587 46.8613 32.7323 46.926C32.8775 46.9908 33.0343 47.0256 33.1933 47.0284C33.3523 47.0312 33.5103 47.0019 33.6577 46.9424C33.8051 46.8828 33.9391 46.7942 34.0515 46.6817C34.164 46.5693 34.2526 46.4353 34.3122 46.2879C34.3717 46.1404 34.401 45.9825 34.3982 45.8235C34.3954 45.6645 34.3606 45.5077 34.2959 45.3624C34.2311 45.2172 34.1378 45.0864 34.0215 44.978L29.5532 40.5098ZM24.106 40.6834C22.8498 40.6834 21.645 40.1844 20.7567 39.2961C19.8684 38.4078 19.3693 37.203 19.3693 35.9467C19.3693 34.6905 19.8684 33.4857 20.7567 32.5974C21.645 31.7091 22.8498 31.2101 24.106 31.2101C25.3623 31.2101 26.5671 31.7091 27.4554 32.5974C28.3437 33.4857 28.8427 34.6905 28.8427 35.9467C28.8427 37.203 28.3437 38.4078 27.4554 39.2961C26.5671 40.1844 25.3623 40.6834 24.106 40.6834Z" fill="black"/>
</svg>
