<svg width="120" height="120" viewBox="0 0 120 120" fill="none" xmlns="http://www.w3.org/2000/svg">
<g id="Group 1">
<path id="Vector" d="M120 60C120 93.1375 93.1375 120.004 60 120.004C55.1522 120.004 50.4385 119.43 45.926 118.342C45.8813 118.334 45.8403 118.323 45.7956 118.312C44.0181 117.88 42.2743 117.369 40.5639 116.784C39.8224 116.531 39.0846 116.263 38.358 115.979C32.9661 113.896 27.9543 111.053 23.4455 107.588C22.8531 107.126 22.2643 106.66 21.6868 106.179C21.6681 106.161 21.6458 106.142 21.6234 106.123C21.1725 105.747 20.7216 105.363 20.2819 104.972C18.933 103.783 17.6401 102.531 16.4029 101.223C14.2268 98.9244 12.2333 96.4539 10.4447 93.8343C10.4409 93.8306 10.4409 93.8306 10.4447 93.8306C10.3441 93.6853 10.2435 93.5437 10.1503 93.3983C3.73743 83.8517 0 72.3599 0 60C0 26.8625 26.8625 0 60 0C77.2786 0 92.8506 7.30344 103.798 18.9889C106.753 22.1413 109.369 25.6179 111.59 29.3516C116.933 38.3207 120 48.8026 120 60Z" fill="#FDCD07"/>
<g id="Group">
<g id="Clip path group">
<mask id="mask0_891_26964" style="mask-type:luminance" maskUnits="userSpaceOnUse" x="0" y="0" width="120" height="121">
<g id="SVGID_2_">
<path id="Vector_2" d="M120 60C120 93.1375 93.1375 120.004 60 120.004C55.1522 120.004 50.4385 119.43 45.926 118.342C45.8813 118.334 45.8403 118.323 45.7956 118.312C44.0181 117.88 42.2743 117.369 40.5639 116.784C39.8224 116.531 39.0846 116.263 38.358 115.979C32.9661 113.896 27.9543 111.053 23.4455 107.588C22.8531 107.126 22.2643 106.66 21.6868 106.179C21.6681 106.161 21.6458 106.142 21.6234 106.123C21.1725 105.747 20.7216 105.363 20.2819 104.972C18.933 103.783 17.6401 102.531 16.4029 101.223C14.2268 98.9244 12.2333 96.4539 10.4447 93.8343C10.4409 93.8306 10.4409 93.8306 10.4447 93.8306C10.3441 93.6853 10.2435 93.5437 10.1503 93.3983C3.73743 83.8517 0 72.3599 0 60C0 26.8625 26.8625 0 60 0C77.2786 0 92.8506 7.30344 103.798 18.9889C106.753 22.1413 109.369 25.6179 111.59 29.3516C116.933 38.3207 120 48.8026 120 60Z" fill="white"/>
</g>
</mask>
<g mask="url(#mask0_891_26964)">
<g id="Group_2">
<path id="Vector_3" d="M57.9955 80.9154C57.9955 75.1881 57.9955 69.5913 57.9955 63.6442C59.6351 64.1994 61.133 64.5236 62.426 65.2316C62.9477 65.5185 63.2495 66.6364 63.2495 67.3742C63.298 81.4669 63.2831 95.5595 63.2831 109.656C63.2831 110.442 63.2831 111.232 63.2831 112.223C66.6404 112.223 69.8114 112.223 73.247 112.223C73.0645 115.078 72.9303 117.72 72.7254 120.35C71.8348 131.726 70.7654 143.092 70.0835 154.483C69.7071 160.739 69.9605 167.033 69.9344 173.311C69.9307 174.582 69.7966 175.868 69.9568 177.116C70.6573 182.485 68.3694 186.558 64.3339 190.113C64.0805 189.632 63.7936 189.159 63.5737 188.66C59.8661 180.175 56.0802 171.72 52.5329 163.169C51.8025 161.41 51.9702 159.282 51.7019 157.162C50.1928 157.162 48.5644 157.162 46.7162 157.162C47.7521 159.562 48.747 161.872 49.7493 164.175C56.1212 178.841 62.5117 193.5 68.8613 208.182C70.6238 212.254 69.614 216.402 66.3721 219.021C63.3278 221.481 58.7184 221.704 55.6033 219.241C54.2991 218.209 53.1104 216.744 52.4434 215.228C44.1525 196.313 35.8989 177.38 27.8427 158.365C26.71 155.69 26.4193 152.575 26.1734 149.624C25.1636 137.655 24.3214 125.668 23.4271 113.688C23.3973 113.3 23.4644 112.905 23.4942 112.331C26.7286 112.331 29.9071 112.331 33.3911 112.331C33.3911 111.374 33.3911 110.602 33.3911 109.827C33.3911 95.8017 33.3911 81.7724 33.3911 67.7468C33.3911 64.6913 33.3874 64.6838 36.2715 63.8305C36.9609 63.6256 37.6689 63.4952 38.6004 63.2753C38.6004 69.2299 38.6004 75.0018 38.6004 80.9079C45.1027 80.9154 51.4075 80.9154 57.9955 80.9154Z" fill="black"/>
<path id="Vector_4" d="M30.3282 66.5246C30.3282 80.7551 30.3282 94.9447 30.3282 109.257C27.8986 109.257 25.5958 109.257 23.0769 109.257C22.7862 105.851 22.4956 102.483 22.2087 99.1106C22.0894 99.0808 21.9665 99.051 21.8472 99.0212C21.2026 101.79 20.4573 104.54 19.9357 107.334C18.1321 116.963 17.7074 126.67 18.5122 136.433C18.7917 139.816 16.4144 142.834 13.2806 143.114C9.6773 143.431 6.90498 141.161 6.62923 137.502C5.11638 117.485 7.87008 98.179 16.0045 79.6894C18.8103 73.3101 23.8221 69.5913 29.6835 66.5917C29.84 66.506 30.0599 66.547 30.3282 66.5246Z" fill="black"/>
<path id="Vector_5" d="M66.3721 66.8078C72.7477 70.113 78.1917 74.7149 85.5734 75.5161C88.0253 70.9067 90.6187 66.0328 93.2085 61.1588C93.9612 59.7466 94.6506 58.2971 95.4778 56.9333C97.1434 54.187 100.564 53.2145 103.325 54.6305C106.116 56.0576 107.48 59.4448 106.016 62.3177C101.928 70.3329 97.7098 78.2847 93.4209 86.1955C92.0273 88.7666 89.2475 89.6124 86.2926 88.6958C82.8011 87.6115 79.3357 86.4451 75.4977 85.1968C74.8605 93.3201 74.2382 101.253 73.6084 109.276C71.1268 109.276 68.8202 109.276 66.3721 109.276C66.3721 95.1795 66.3721 81.1911 66.3721 66.8078Z" fill="black"/>
<path id="Vector_6" d="M38.8613 26.9333C40.4934 31.0619 42.0622 35.0304 43.4632 38.5666C44.2122 36.0179 42.9304 30.3987 39.9606 24.4963C43.8731 21.1725 52.0895 21.1613 56.9075 24.5746C53.5017 29.1876 52.9353 34.5758 52.9502 40.113C53.5204 37.8139 53.9414 35.4626 54.709 33.2344C55.4915 30.9539 56.6169 28.7889 57.6043 26.5457C64.1178 29.9888 66.4392 37.4711 65.9399 42.904C65.8095 44.3423 62.8658 46.1421 61.4386 45.844C52.7639 44.0293 44.1041 44.0032 35.463 46.0638C33.6297 46.4998 30.9207 44.6888 30.753 42.7437C30.2276 36.7184 32.5602 30.1639 38.8613 26.9333Z" fill="black"/>
<path id="Vector_7" d="M28.9866 45.4117C29.8474 45.9856 30.8646 46.4216 31.5391 47.1668C32.7315 48.4859 33.8717 48.7691 35.6864 48.3555C44.253 46.4067 52.8644 46.3209 61.4273 48.4859C62.7985 48.8324 63.7823 48.6983 64.7064 47.5096C65.4852 46.511 66.3049 45.2403 68.3656 45.9968C68.0414 46.6526 67.8588 47.409 67.393 47.8897C64.7362 50.6099 62.1576 53.4381 59.2773 55.9049C51.5006 62.5674 40.0759 60.8682 34.1773 52.5028C33.0147 50.8521 31.0398 49.7901 29.5418 48.348C28.9531 47.7816 28.6512 46.9209 28.219 46.1943C28.4761 45.9334 28.7295 45.6726 28.9866 45.4117Z" fill="black"/>
<path id="Vector_8" d="M55.048 78.1318C50.502 78.1318 46.1759 78.1318 41.6895 78.1318C41.6895 73.012 41.6895 67.9219 41.6895 62.8319C45.2629 61.8183 51.6944 61.9972 55.048 63.2231C55.048 68.112 55.048 73.0269 55.048 78.1318Z" fill="black"/>
</g>
</g>
</g>
</g>
</g>
</svg>
