<svg width="120" height="120" viewBox="0 0 120 120" fill="none" xmlns="http://www.w3.org/2000/svg">
<rect width="120" height="120" rx="60" fill="#FFCE00"/>
<path d="M92.8242 90.359C92.8242 87.2379 87.13 78.515 87.13 78.515C87.13 78.515 81.3496 87.2379 81.3496 90.359C81.3496 93.4737 83.9197 96 87.0877 96C90.2542 96 92.8242 93.4737 92.8242 90.359ZM51.6512 41.485H40.1766V30.1732H43.3054V24H22.4348V30.1732H25.5653V47.6567C25.5653 52.2021 29.303 55.885 33.9126 55.885H51.6512V58.9717H57.9136V38.4016H51.6512V41.485ZM94.4317 67.1984V49.715C94.4317 45.1711 90.6955 41.4866 86.0907 41.4866H68.3489V38.4031H62.0865V58.9748H68.3489V55.8866H79.8251V67.1984H76.6994V73.3717H97.5653V67.1984H94.4317Z" fill="black"/>
</svg>
